# xmcd CD database file
# Generated: Mo Jan 5 00:12:55 2004 by KSCD
# 
# Track frame offsets:
#       182
#       8747
#       17202
#       27545
#       42715
#       51965
#       62230
#       73882
#       84377
#       94995
#       107197
#       117390
#       127407
#       138035
#       150820
#
# Disc length: 2184 seconds
#
# Revision: 9
# Processed by: cddbd v1.4PL0 Copyright (c) Steve Scherf et al.
# Submitted via: Kscd 1.3.3
#
DISCID=d608860f
DTITLE=Various (1996) - Cruisin' Tunes - Toyota LandCruiser 40th Anniversary
DYEAR=1900
DGENRE=
TTITLE0=Jerry Lee Lewis and His Pumping Piano - Great Balls of Fire
TTITLE1=The Coasters - Yakety Yak
TTITLE2=The Marcels - Blue Moon
TTITLE3=The Flamingos - I Only Have Eyes For You
TTITLE4=The Everly Brothers - Wake Up Little Suzie
TTITLE5=Carl Perkins - Blue Suede Shoes
TTITLE6=Bobby Freeman - Do You Want to Dance
TTITLE7=The Teenagers, featuring Frankie Lymon - Why Do Fools Fall in Love
TTITLE8=The Monotones - Book of Love
TTITLE9=The Skyliners, with Lenny Martin and The Orch. Since I Don't Have You
TTITLE10=The Regents - Barbara-Ann
TTITLE11=The Champs - Tequila
TTITLE12=The Cadillacs, with Jesse Powell Orch. - Speedoo
TTITLE13=Johnny Cash and The Tennessee Two - Folsom Prison Blues
TTITLE14=Booker T. and The MG's - Green Onions
EXTD=
EXTT0=
EXTT1=
EXTT2=
EXTT3=
EXTT4=
EXTT5=
EXTT6=
EXTT7=
EXTT8=
EXTT9=
EXTT10=
EXTT11=
EXTT12=
EXTT13=
EXTT14=
PLAYORDER=
